<svg width="350" height="84" viewBox="0 0 350 84" fill="none" xmlns="http://www.w3.org/2000/svg">
<g clip-path="url(#clip0_1_50)">
<path d="M31.82 65.84C27.36 65.84 23.21 65.04 19.36 63.43C15.51 61.82 12.13 59.56 9.23001 56.66C6.33001 53.76 4.06001 50.37 2.44001 46.5C0.82001 42.64 0.0100098 38.45 0.0100098 33.93C0.0100098 29.41 0.82001 25.27 2.44001 21.41C4.06001 17.55 6.32001 14.17 9.21001 11.3C12.1 8.42 15.47 6.17 19.32 4.55C23.17 2.93 27.31 2.12 31.74 2.12C36.17 2.12 40.44 2.93 44.29 4.55C48.14 6.17 51.51 8.42 54.4 11.3C57.29 14.18 59.53 17.55 61.13 21.41C62.73 25.27 63.52 29.46 63.52 33.98C63.52 38.5 62.72 42.64 61.13 46.5C59.54 50.37 57.29 53.75 54.4 56.66C51.51 59.57 48.14 61.82 44.31 63.43C40.47 65.04 36.31 65.84 31.83 65.84H31.82ZM31.69 54.8C34.51 54.8 37.11 54.26 39.5 53.19C41.88 52.12 43.97 50.64 45.76 48.75C47.55 46.86 48.94 44.65 49.93 42.13C50.92 39.61 51.41 36.88 51.41 33.94C51.41 31 50.91 28.19 49.91 25.67C48.91 23.15 47.51 20.95 45.72 19.09C43.93 17.23 41.83 15.78 39.44 14.73C37.04 13.69 34.46 13.16 31.7 13.16C28.94 13.16 26.41 13.68 24.04 14.73C21.67 15.77 19.6 17.23 17.82 19.09C16.04 20.95 14.65 23.14 13.63 25.67C12.62 28.2 12.11 30.95 12.11 33.94C12.11 36.93 12.61 39.61 13.61 42.15C14.61 44.69 15.99 46.9 17.76 48.79C19.52 50.68 21.6 52.15 23.98 53.21C26.36 54.27 28.94 54.8 31.7 54.8H31.69Z" fill="#222"/>
<path d="M70.66 59.32V25.47C70.66 22.34 73.2 19.8 76.33 19.8C79.46 19.8 82 22.34 82 25.47V25.64H83.95L80.31 29.96C80.93 27.59 82.02 25.6 83.57 23.99C85.12 22.38 86.98 21.17 89.13 20.35C91.29 19.53 93.59 19.12 96.05 19.12C99.29 19.12 102.04 19.86 104.28 21.34C106.52 22.82 108.22 24.8 109.38 27.28C110.54 29.76 111.12 32.54 111.12 35.62V59.32C111.12 62.54 108.51 65.16 105.28 65.16C102.06 65.16 99.44 62.55 99.44 59.32V38.16C99.44 35.14 98.7 32.86 97.22 31.33C95.74 29.79 93.74 29.02 91.23 29.02C89.57 29.02 88.06 29.37 86.7 30.08C85.35 30.79 84.28 31.82 83.51 33.19C82.73 34.56 82.35 36.24 82.35 38.25V59.32C82.35 62.54 79.74 65.16 76.51 65.16C73.29 65.16 70.67 62.55 70.67 59.32H70.66Z" fill="#222"/>
<path d="M131.55 65.84C129.01 65.84 126.92 65.3 125.27 64.21C123.62 63.12 122.38 61.65 121.55 59.79C120.72 57.93 120.3 55.81 120.3 53.44V5.84C120.3 2.62 122.91 0 126.14 0C129.36 0 131.98 2.61 131.98 5.84V52.04C131.98 52.72 132.06 53.35 132.21 53.92C132.36 54.5 132.66 54.96 133.1 55.32C133.54 55.67 134.18 55.85 135.02 55.85C135.44 55.85 135.81 55.81 136.12 55.74C136.43 55.67 136.71 55.59 136.97 55.51V64.95C136.24 65.2 135.39 65.42 134.43 65.58C133.47 65.75 132.51 65.83 131.55 65.83V65.84Z" fill="#222"/>
<path d="M150.35 83.61C148.69 83.59 147.04 83.4 145.41 83.07C143.78 82.74 142.53 82.39 141.58 82.01L145.64 72.45C146.37 72.82 147.16 73.11 148.01 73.32C148.86 73.53 149.63 73.64 150.34 73.64C151.84 73.67 153.04 73.35 153.96 72.69C154.88 72.03 155.58 71.24 156.08 70.34C156.57 69.44 156.92 68.62 157.12 67.89L159.24 61.04L158.61 67.3L142.33 27.62C140.81 23.92 143.53 19.87 147.53 19.87C149.91 19.87 152.03 21.37 152.83 23.62L160.65 45.73L163.1 53.09H163.44L165.73 45.73L172.85 23.76C173.6 21.44 175.76 19.87 178.2 19.87H178.24C182.17 19.87 184.89 23.81 183.49 27.48L167.13 70.6C166.68 71.81 166.09 73.17 165.37 74.66C164.65 76.15 163.71 77.58 162.54 78.93C161.37 80.28 159.83 81.4 157.93 82.29C155.95 83.22 153.43 83.66 150.39 83.62L150.35 83.61Z" fill="#222"/>
<path d="M221.3 65.84C216.84 65.84 212.69 65.04 208.84 63.43C204.99 61.82 201.61 59.56 198.71 56.66C195.81 53.76 193.54 50.37 191.92 46.5C190.3 42.64 189.49 38.45 189.49 33.93C189.49 29.41 190.3 25.27 191.92 21.41C193.54 17.55 195.8 14.17 198.69 11.3C201.58 8.42 204.95 6.17 208.8 4.55C212.65 2.93 216.79 2.12 221.22 2.12C225.65 2.12 229.92 2.93 233.77 4.55C237.62 6.17 240.99 8.42 243.88 11.3C246.77 14.18 249.01 17.55 250.61 21.41C252.21 25.27 253 29.46 253 33.98C253 38.5 252.2 42.64 250.61 46.5C249.02 50.37 246.77 53.75 243.88 56.66C240.99 59.57 237.62 61.82 233.79 63.43C229.95 65.04 225.79 65.84 221.31 65.84H221.3ZM221.17 54.8C223.99 54.8 226.59 54.26 228.98 53.19C231.36 52.12 233.45 50.64 235.24 48.75C237.03 46.86 238.42 44.65 239.41 42.13C240.4 39.61 240.89 36.88 240.89 33.94C240.89 31 240.39 28.19 239.39 25.67C238.39 23.15 236.99 20.95 235.2 19.09C233.41 17.23 231.31 15.78 228.92 14.73C226.52 13.69 223.94 13.16 221.18 13.16C218.42 13.16 215.89 13.68 213.52 14.73C211.15 15.77 209.08 17.23 207.3 19.09C205.52 20.95 204.13 23.14 203.11 25.67C202.1 28.2 201.59 30.95 201.59 33.94C201.59 36.93 202.09 39.61 203.09 42.15C204.09 44.69 205.47 46.9 207.24 48.79C209 50.68 211.08 52.15 213.46 53.21C215.84 54.27 218.42 54.8 221.18 54.8H221.17Z" fill="#222"/>
<path d="M260.14 59.32V25.47C260.14 22.34 262.68 19.8 265.81 19.8C268.94 19.8 271.48 22.34 271.48 25.47V25.64H273.43L269.79 29.96C270.41 27.59 271.5 25.6 273.05 23.99C274.6 22.38 276.46 21.17 278.61 20.35C280.77 19.53 283.07 19.12 285.53 19.12C288.77 19.12 291.52 19.86 293.76 21.34C296 22.82 297.7 24.8 298.86 27.28C300.02 29.76 300.6 32.54 300.6 35.62V59.32C300.6 62.54 297.99 65.16 294.76 65.16C291.54 65.16 288.92 62.55 288.92 59.32V38.16C288.92 35.14 288.18 32.86 286.7 31.33C285.22 29.79 283.22 29.02 280.71 29.02C279.05 29.02 277.54 29.37 276.18 30.08C274.83 30.79 273.76 31.82 272.99 33.19C272.21 34.56 271.83 36.24 271.83 38.25V59.32C271.83 62.54 269.22 65.16 265.99 65.16C262.77 65.16 260.15 62.55 260.15 59.32H260.14Z" fill="#222"/>
<path d="M330.55 65.84C325.78 65.84 321.63 64.85 318.11 62.86C314.58 60.87 311.85 58.12 309.92 54.61C307.99 51.1 307.02 47.09 307.02 42.57C307.02 37.8 308.01 33.68 310 30.19C311.99 26.71 314.64 24.01 317.95 22.09C321.26 20.17 324.9 19.21 328.85 19.21C332.8 19.21 336.04 20.08 339.15 21.81C342.27 23.55 344.77 25.99 346.66 29.13C348.55 32.28 349.49 35.99 349.49 40.28C349.49 41.27 349.43 42.21 349.32 43.11C349.21 44.01 349.04 45.07 348.81 46.28H315.72V38.49H338.74C338.74 36.54 338.32 34.84 337.47 33.37C336.62 31.9 335.46 30.75 333.98 29.92C332.5 29.09 330.78 28.67 328.84 28.67C326.47 28.67 324.42 29.24 322.68 30.38C320.95 31.52 319.6 33.11 318.66 35.14C317.71 37.17 317.24 39.53 317.24 42.21C317.24 44.89 317.76 47.46 318.81 49.57C319.85 51.69 321.35 53.34 323.29 54.54C325.24 55.74 327.54 56.34 330.19 56.34C331.69 56.34 333.14 56.16 334.55 55.81C335.96 55.46 337.27 54.98 338.48 54.39C338.49 54.39 338.5 54.38 338.52 54.37C340.26 53.51 342.36 54.25 343.1 56.05L344.31 58.98C344.98 60.6 344.29 62.47 342.71 63.22C341.54 63.78 340.25 64.26 338.84 64.68C336.26 65.44 333.49 65.82 330.53 65.82L330.55 65.84Z" fill="#222"/>
</g>
<defs>
<clipPath id="clip0_1_50">
<rect width="349.5" height="83.61" fill="#222"/>
</clipPath>
</defs>
</svg>
